REM DIRINDEX 1\2,1\3
REM DIRNAME folder01,folder02,folder03
TITLE ""
FILE "CD2Track17.mp3" MP3
  TRACK 01 AUDIO
    TITLE "0:"
    INDEX 01 00:00:00
  TRACK 02 AUDIO
    TITLE "2:cjc102_3046"
    INDEX 01 00:00:27
  TRACK 03 AUDIO
    TITLE "0:"
    INDEX 01 00:01:17
  TRACK 04 AUDIO
    TITLE "3:cjc102_3047"
    INDEX 01 00:01:30
  TRACK 05 AUDIO
    TITLE "0:"
    INDEX 01 00:02:67
  TRACK 06 AUDIO
    TITLE "3:cjc102_3048"
    INDEX 01 00:03:66
  TRACK 07 AUDIO
    TITLE "0:"
    INDEX 01 00:08:26
  TRACK 08 AUDIO
    TITLE "2:cjc102_3049"
    INDEX 01 00:08:30
  TRACK 09 AUDIO
    TITLE "0:"
    INDEX 01 00:09:45
  TRACK 10 AUDIO
    TITLE "3:cjc102_3050"
    INDEX 01 00:11:05
  TRACK 11 AUDIO
    TITLE "0:"
    INDEX 01 00:12:01
  TRACK 12 AUDIO
    TITLE "2:cjc102_3051"
    INDEX 01 00:12:07
  TRACK 13 AUDIO
    TITLE "0:"
    INDEX 01 00:13:14
  TRACK 14 AUDIO
    TITLE "3:cjc102_3052"
    INDEX 01 00:13:73
  TRACK 15 AUDIO
    TITLE "0:"
    INDEX 01 00:14:56
  TRACK 16 AUDIO
    TITLE "2:cjc102_3053"
    INDEX 01 00:14:58
  TRACK 17 AUDIO
    TITLE "0:"
    INDEX 01 00:15:62
  TRACK 18 AUDIO
    TITLE "3:cjc102_3054"
    INDEX 01 00:16:20
  TRACK 19 AUDIO
    TITLE "0:"
    INDEX 01 00:17:20
  TRACK 20 AUDIO
    TITLE "2:cjc102_3055"
    INDEX 01 00:17:41
  TRACK 21 AUDIO
    TITLE "0:"
    INDEX 01 00:18:56
  TRACK 22 AUDIO
    TITLE "3:cjc102_3056"
    INDEX 01 00:19:50
  TRACK 23 AUDIO
    TITLE "0:"
    INDEX 01 00:20:47
  TRACK 24 AUDIO
    TITLE "2:cjc102_3057"
    INDEX 01 00:20:65
  TRACK 25 AUDIO
    TITLE "0:"
    INDEX 01 00:21:68
  TRACK 26 AUDIO
    TITLE "3:cjc102_3058"
    INDEX 01 00:22:56
  TRACK 27 AUDIO
    TITLE "0:"
    INDEX 01 00:23:34
  TRACK 28 AUDIO
    TITLE "2:cjc102_3059"
    INDEX 01 00:24:27
  TRACK 29 AUDIO
    TITLE "0:"
    INDEX 01 00:25:29
  TRACK 30 AUDIO
    TITLE "3:cjc102_3060"
    INDEX 01 00:26:30
  TRACK 31 AUDIO
    TITLE "0:"
    INDEX 01 00:27:28
  TRACK 32 AUDIO
    TITLE "2:cjc102_3061"
    INDEX 01 00:27:59
  TRACK 33 AUDIO
    TITLE "0:"
    INDEX 01 00:28:70
  TRACK 34 AUDIO
    TITLE "3:cjc102_3062"
    INDEX 01 00:30:08
  TRACK 35 AUDIO
    TITLE "0:"
    INDEX 01 00:31:02
  TRACK 36 AUDIO
    TITLE "2:cjc102_3063"
    INDEX 01 00:31:33
  TRACK 37 AUDIO
    TITLE "0:"
    INDEX 01 00:32:43
  TRACK 38 AUDIO
    TITLE "3:cjc102_3064"
    INDEX 01 00:34:06
  TRACK 39 AUDIO
    TITLE "0:"
    INDEX 01 00:35:02
  TRACK 40 AUDIO
    TITLE "2:cjc102_3065"
    INDEX 01 00:35:14
  TRACK 41 AUDIO
    TITLE "0:"
    INDEX 01 00:36:23
  TRACK 42 AUDIO
    TITLE "3:cjc102_3066"
    INDEX 01 00:37:12
  TRACK 43 AUDIO
    TITLE "0:"
    INDEX 01 00:38:04
  TRACK 44 AUDIO
    TITLE "2:cjc102_3067"
    INDEX 01 00:38:47
  TRACK 45 AUDIO
    TITLE "0:"
    INDEX 01 00:39:54
  TRACK 46 AUDIO
    TITLE "3:cjc102_3068"
    INDEX 01 00:40:52
  TRACK 47 AUDIO
    TITLE "0:"
    INDEX 01 00:41:47
  TRACK 48 AUDIO
    TITLE "2:cjc102_3069"
    INDEX 01 00:42:18
  TRACK 49 AUDIO
    TITLE "0:"
    INDEX 01 00:43:31
  TRACK 50 AUDIO
    TITLE "3:cjc102_3070"
    INDEX 01 00:43:68
  TRACK 51 AUDIO
    TITLE "0:"
    INDEX 01 00:45:08
  TRACK 52 AUDIO
    TITLE "2:cjc102_3071"
    INDEX 01 00:46:00
  TRACK 53 AUDIO
    TITLE "0:"
    INDEX 01 00:47:05
  TRACK 54 AUDIO
    TITLE "3:cjc102_3072"
    INDEX 01 00:48:08
  TRACK 55 AUDIO
    TITLE "0:"
    INDEX 01 00:49:21
  TRACK 56 AUDIO
    TITLE "2:cjc102_3073"
    INDEX 01 00:49:49
  TRACK 57 AUDIO
    TITLE "0:"
    INDEX 01 00:50:54
  TRACK 58 AUDIO
    TITLE "3:cjc102_3074"
    INDEX 01 00:51:36
  TRACK 59 AUDIO
    TITLE "0:"
    INDEX 01 00:52:55
  TRACK 60 AUDIO
    TITLE "2:cjc102_3075"
    INDEX 01 00:53:09
  TRACK 61 AUDIO
    TITLE "0:"
    INDEX 01 00:54:29
  TRACK 62 AUDIO
    TITLE "3:cjc102_3076"
    INDEX 01 00:55:36
  TRACK 63 AUDIO
    TITLE "0:"
    INDEX 01 00:56:53
  TRACK 64 AUDIO
    TITLE "2:cjc102_3077"
    INDEX 01 00:56:74
  TRACK 65 AUDIO
    TITLE "0:"
    INDEX 01 00:58:05
  TRACK 66 AUDIO
    TITLE "3:cjc102_3078"
    INDEX 01 00:59:26
  TRACK 67 AUDIO
    TITLE "0:"
    INDEX 01 01:00:35
  TRACK 68 AUDIO
    TITLE "2:cjc102_3079"
    INDEX 01 01:00:64
  TRACK 69 AUDIO
    TITLE "0:"
    INDEX 01 01:01:64
  TRACK 70 AUDIO
    TITLE "3:cjc102_3080"
    INDEX 01 01:02:69
  TRACK 71 AUDIO
    TITLE "0:"
    INDEX 01 01:04:05
  TRACK 72 AUDIO
    TITLE "2:cjc102_3081"
    INDEX 01 01:04:56
  TRACK 73 AUDIO
    TITLE "0:"
    INDEX 01 01:05:58
  TRACK 74 AUDIO
    TITLE "3:cjc102_3082"
    INDEX 01 01:07:08
  TRACK 75 AUDIO
    TITLE "0:"
    INDEX 01 01:08:29
  TRACK 76 AUDIO
    TITLE "2:cjc102_3083"
    INDEX 01 01:08:56
  TRACK 77 AUDIO
    TITLE "0:"
    INDEX 01 01:09:63
  TRACK 78 AUDIO
    TITLE "2:cjc102_3084"
    INDEX 01 01:10:22
  TRACK 79 AUDIO
    TITLE "0:"
    INDEX 01 01:11:31
  TRACK 80 AUDIO
    TITLE "3:cjc102_3085"
    INDEX 01 01:12:54
  TRACK 81 AUDIO
    TITLE "0:"
    INDEX 01 01:13:73
  TRACK 82 AUDIO
    TITLE "2:cjc102_3086"
    INDEX 01 01:14:02
  TRACK 83 AUDIO
    TITLE "0:"
    INDEX 01 01:14:61
  TRACK 84 AUDIO
    TITLE "2:cjc102_3087"
    INDEX 01 01:15:35
  TRACK 85 AUDIO
    TITLE "0:"
    INDEX 01 01:16:28
  TRACK 86 AUDIO
    TITLE "3:cjc102_3088"
    INDEX 01 01:18:09
  TRACK 87 AUDIO
    TITLE "0:"
    INDEX 01 01:19:34
  TRACK 88 AUDIO
    TITLE "2:cjc102_3089"
    INDEX 01 01:19:44
  TRACK 89 AUDIO
    TITLE "0:"
    INDEX 01 01:20:48
  TRACK 90 AUDIO
    TITLE "2:cjc102_3090"
    INDEX 01 01:21:08
  TRACK 91 AUDIO
    TITLE "0:"
    INDEX 01 01:22:11
  TRACK 92 AUDIO
    TITLE "3:cjc102_3091"
    INDEX 01 01:23:38
  TRACK 93 AUDIO
    TITLE "0:"
    INDEX 01 01:24:47
  TRACK 94 AUDIO
    TITLE "2:cjc102_3092"
    INDEX 01 01:24:71
  TRACK 95 AUDIO
    TITLE "0:"
    INDEX 01 01:26:05
  TRACK 96 AUDIO
    TITLE "2:cjc102_3093"
    INDEX 01 01:26:42
  TRACK 97 AUDIO
    TITLE "0:"
    INDEX 01 01:27:63
  TRACK 98 AUDIO
    TITLE "3:cjc102_3094"
    INDEX 01 01:28:55
  TRACK 99 AUDIO
    TITLE "0:"
    INDEX 01 01:30:07
  TRACK 100 AUDIO
    TITLE "2:cjc102_3095"
    INDEX 01 01:30:46
  TRACK 101 AUDIO
    TITLE "0:"
    INDEX 01 01:33:25
  TRACK 102 AUDIO
    TITLE "3:cjc102_3096"
    INDEX 01 01:34:44
  TRACK 103 AUDIO
    TITLE "0:"
    INDEX 01 01:35:65
  TRACK 104 AUDIO
    TITLE "2:cjc102_3097"
    INDEX 01 01:35:71
  TRACK 105 AUDIO
    TITLE "0:"
    INDEX 01 01:39:59
  TRACK 106 AUDIO
    TITLE "3:cjc102_3098"
    INDEX 01 01:40:44
  TRACK 107 AUDIO
    TITLE "0:"
    INDEX 01 01:41:71
  TRACK 108 AUDIO
    TITLE "2:cjc102_3099"
    INDEX 01 01:42:65
  TRACK 109 AUDIO
    TITLE "0:"
    INDEX 01 01:43:68
  TRACK 110 AUDIO
    TITLE "3:cjc102_3100"
    INDEX 01 01:44:64
  TRACK 111 AUDIO
    TITLE "0:"
    INDEX 01 01:46:19
  TRACK 112 AUDIO
    TITLE "2:cjc102_3101"
    INDEX 01 01:46:53
  TRACK 113 AUDIO
    TITLE "0:"
    INDEX 01 01:47:68
  TRACK 114 AUDIO
    TITLE "3:cjc102_3102"
    INDEX 01 01:48:67
  TRACK 115 AUDIO
    TITLE "0:"
    INDEX 01 01:50:13
  TRACK 116 AUDIO
    TITLE "2:cjc102_3103"
    INDEX 01 01:51:40
  TRACK 117 AUDIO
    TITLE "0:"
    INDEX 01 01:52:40
  TRACK 118 AUDIO
    TITLE "3:cjc102_3104"
    INDEX 01 01:53:69
  TRACK 119 AUDIO
    TITLE "0:"
    INDEX 01 01:55:28
  TRACK 120 AUDIO
    TITLE "2:cjc102_3105"
    INDEX 01 01:55:73
  TRACK 121 AUDIO
    TITLE "0:"
    INDEX 01 01:56:71
